<?xml version="1.0" encoding="UTF-8"?>
<svg xmlns="http://www.w3.org/2000/svg" width="1024" height="1024" viewBox="0 0 1024 1024">
  <defs>
    <linearGradient id="bg" x1="0" y1="0" x2="0" y2="1">
      <stop offset="0%" stop-color="#4aa3ff"/>
      <stop offset="100%" stop-color="#1e66d0"/>
    </linearGradient>
    <filter id="soft" x="-20%" y="-20%" width="140%" height="140%">
      <feGaussianBlur in="SourceAlpha" stdDeviation="18" result="blur"/>
      <feOffset dx="0" dy="8" result="off"/>
      <feMerge>
        <feMergeNode in="off"/>
        <feMergeNode in="SourceGraphic"/>
      </feMerge>
    </filter>
  </defs>

  <!-- Rounded square background -->
  <rect x="32" y="32" width="960" height="960" rx="200" fill="url(#bg)"/>

  <!-- Calendar body -->
  <g filter="url(#soft)">
    <!-- Calendar container -->
    <rect x="168" y="208" width="688" height="576" rx="48" fill="#ffffff" opacity="0.95"/>
    <!-- Header strip -->
    <rect x="168" y="208" width="688" height="140" rx="48" fill="#0d47a1" opacity="0.95"/>
    <!-- Binding rings -->
    <g fill="#9ec3ff">
      <circle cx="312" cy="208" r="36"/>
      <circle cx="712" cy="208" r="36"/>
    </g>
    <g fill="#0d47a1">
      <rect x="276" y="132" width="72" height="120" rx="36"/>
      <rect x="676" y="132" width="72" height="120" rx="36"/>
    </g>

    <!-- Subtle grid (timetable feel) -->
    <g stroke="#e6efff" stroke-width="6">
      <!-- vertical -->
      <path d="M312 384V744"/>
      <path d="M456 384V744"/>
      <path d="M600 384V744"/>
      <path d="M744 384V744"/>
      <!-- horizontal -->
      <path d="M224 456H800"/>
      <path d="M224 528H800"/>
      <path d="M224 600H800"/>
      <path d="M224 672H800"/>
    </g>

    <!-- Clock in center -->
    <g transform="translate(0,0)">
      <circle cx="512" cy="568" r="116" fill="#ffffff" stroke="#1e66d0" stroke-width="20"/>
      <!-- hour marks -->
      <g fill="#1e66d0">
        <circle cx="512" cy="452" r="10"/>
        <circle cx="512" cy="684" r="10"/>
        <circle cx="396" cy="568" r="10"/>
        <circle cx="628" cy="568" r="10"/>
      </g>
      <!-- hands -->
      <g stroke="#1e66d0" stroke-linecap="round">
        <line x1="512" y1="568" x2="512" y2="500" stroke-width="22"/>
        <line x1="512" y1="568" x2="580" y2="606" stroke-width="16"/>
        <circle cx="512" cy="568" r="12" fill="#1e66d0"/>
      </g>
    </g>
  </g>
  <title>School Timetable App Logo (icon-only)</title>
  <desc>Calendar with rings and central clock, blue gradient background, designed for app icon usage.</desc>
</svg>
